<?xml version="1.0" encoding="UTF-8"?>
<svg version="1.1" width="227px" height="74px" xmlns="http://www.w3.org/2000/svg" xmlns:xlink="http://www.w3.org/1999/xlink">
  <g fill="#000" fill-rule="evenodd">
    <path d="M154.547 33.996c-1.764 0-3.91-.55-5.363-1.376l.589-2.786c1.384.722 3.252 1.271 4.774 1.271 1.352 0 2.387-.308 2.387-1.549v-.137c0-1.238-1.488-1.823-2.768-2.201-2.316-.722-4.634-1.378-4.634-4.301v-.24c0-3.098 2.352-4.234 5.466-4.234 1.73 0 3.184.378 4.809.964l-.59 2.787c-1.313-.481-3.111-.893-4.357-.893-1.213 0-1.73.308-1.73 1.1v.205c0 1.204 2.316 1.48 4.047 2.168 1.73.689 3.323 1.789 3.323 4.199v.412c0 3.612-2.666 4.611-5.953 4.611zm-13.287-6.263l-2.837.241v.207c0 1.619.45 2.718 2.353 2.718 2.008 0 4.463-.206 5.536-.446l.242 2.819c-1.9.414-4.15.723-5.846.723-3.495 0-6.262-1.375-6.262-6.262V24.74c0-4.886 2.836-6.295 6.33-6.295 3.045 0 5.919 1.306 5.919 4.609 0 3.405-2.354 4.405-5.435 4.679zm-.414-6.263c-1.869 0-2.423 1.103-2.423 3.236v.62l2.285-.175c1.867-.134 2.214-.996 2.214-1.993 0-.965-.551-1.688-2.076-1.688zm-35.74 12.526c-1.767 0-3.912-.55-5.366-1.376l.589-2.786c1.384.722 3.253 1.271 4.777 1.271 1.348 0 2.388-.308 2.388-1.549v-.137c0-1.238-1.49-1.823-2.77-2.201-2.318-.722-4.636-1.378-4.636-4.301v-.24c0-3.098 2.352-4.234 5.466-4.234 1.731 0 3.184.378 4.81.964l-.587 2.787c-1.315-.481-3.115-.893-4.36-.893-1.213 0-1.731.308-1.731 1.1v.205c0 1.204 2.318 1.48 4.05 2.168 1.728.689 3.32 1.789 3.32 4.199v.412c0 3.612-2.666 4.611-5.95 4.611zm-22.572-6.263l-2.838.241v.207c0 1.619.45 2.718 2.354 2.718 2.008 0 4.463-.206 5.536-.446l.242 2.819c-1.902.414-4.153.723-5.849.723-3.494 0-6.26-1.375-6.26-6.262V24.74c0-4.886 2.835-6.295 6.33-6.295 3.045 0 5.918 1.306 5.918 4.609 0 3.405-2.352 4.405-5.433 4.679zm-.416-6.263c-1.867 0-2.422 1.103-2.422 3.236v.62l2.283-.175c1.869-.134 2.215-.996 2.215-1.993 0-.965-.552-1.688-2.076-1.688zm36.515-2.717v12.63c0 1.373.346 2.303.346 2.303H115s-.345-.93-.345-2.304v-12.63h3.979zm-28.927 5.793h7.405v2.087h-7.405v-2.087zm38.237 6.078c.794 0 4.115-.275 4.115-.275l.45 2.96c-.797.136-4.323.515-5.986.515-2.804 0-3.667-1.549-3.667-4.025V16.675l3.96-2.252.017-.006v4.336h4.81v3.13h-4.81v7.88c0 .69.38.861 1.11.861zM32.76 74.004l32.274-18.439V43.341L32.76 61.458l.013-12.542-10.351-5.941-11.15 6.063-.017 12.217z"></path>
    <path d="M21.47 18.568l11.348-6.538 10.893 6.538-.009 12.313-10.942 5.84 10.942 6.254L65.076 30.84V18.568L32.76.088.578 18.004l10.677 6.19v12.388l11.167 6.393 10.338-6.254V24.383z"></path>
    <path d="M3.951 7.65c-1.353 0-2.449.968-2.449 2.466 0 1.482 1.096 2.513 2.45 2.513 1.336 0 2.496-.918 2.496-2.513 0-1.611-1.289-2.465-2.497-2.465zm2.513 5.092c-.5.854-1.595 1.321-2.642 1.321-2.062 0-3.818-1.547-3.818-3.931 0-2.4 1.756-3.915 3.818-3.915 1.047 0 2.143.435 2.642 1.29v-1.13h1.45v7.524h-1.45v-1.16zm97.078-5.251c-1.353 0-2.449.966-2.449 2.465 0 1.482 1.096 2.513 2.449 2.513 1.337 0 2.497-.918 2.497-2.513 0-1.611-1.289-2.465-2.497-2.465zm2.513 5.09c-.5.855-1.595 1.322-2.642 1.322-2.062 0-3.818-1.547-3.818-3.931 0-2.4 1.756-3.915 3.818-3.915 1.047 0 2.143.435 2.642 1.289V6.218h1.45v7.524h-1.45v-1.16zm7.025-5.09c-1.354 0-2.45 1.03-2.45 2.497 0 1.53 1.096 2.481 2.45 2.481 1.208 0 2.497-.886 2.497-2.48 0-1.612-1.16-2.498-2.497-2.498zm-.145 8.62c1.627 0 2.674-.92 2.674-3.416 0-.065-.016-.113-.016-.178-.451.887-1.595 1.386-2.642 1.386-2.062 0-3.818-1.515-3.818-3.9 0-2.4 1.756-3.946 3.818-3.946 1.047 0 2.143.467 2.642 1.337V6.218h1.45v6.38c0 3.544-1.627 4.898-4.108 4.898-1.386 0-2.675-.71-3.4-2.03.194-.08 1.031-.548 1.225-.645.45.838 1.337 1.29 2.175 1.29zm11.857-6.72c-.177-1.256-1.08-2.013-2.288-2.013-1.24 0-2.207.757-2.384 2.014h4.672zm1.434 1.145h-6.106c.177 1.257 1.16 2.046 2.433 2.046.902 0 1.74-.419 2.159-1.16.386.161.854.322 1.256.483-.644 1.321-2.014 1.998-3.464 1.998-2.142 0-3.85-1.563-3.85-3.947 0-2.385 1.708-3.899 3.85-3.899 2.143 0 3.738 1.514 3.738 3.899 0 .177 0 .418-.016.58zm3.029 3.206h-1.466V6.218h1.466v1.128c.451-.902 1.53-1.289 2.352-1.289 1.87 0 2.9 1.224 2.9 3.335v4.35h-1.466V9.489c0-1.257-.628-1.998-1.66-1.998-1.063 0-2.126.596-2.126 2.191v4.06m10.762-7.685c1.144 0 2.191.435 2.9 1.208l-1.111.935c-.452-.451-1.096-.71-1.789-.71-1.353 0-2.529.951-2.529 2.466 0 1.515 1.176 2.53 2.53 2.53a2.48 2.48 0 0 0 1.788-.742l1.127.935c-.708.773-1.756 1.224-2.916 1.224-2.143 0-3.979-1.563-3.979-3.947 0-2.385 1.836-3.899 3.98-3.899m4.881 11.342l1.579-3.883-3.013-7.298h1.563l2.256 5.446 2.255-5.446h1.563l-4.673 11.181h-1.53M95.754 7.688L92.298.21l-2.016.932 2.045 4.423c-.077-.004-.152-.012-.23-.012a4.2 4.2 0 0 0-4.027 3.045l2.137.604a1.971 1.971 0 0 1 1.89-1.428c1.083 0 1.965.88 1.965 1.964a1.967 1.967 0 0 1-1.964 1.964c-.92 0-1.707-.624-1.914-1.517l-2.163.503a4.165 4.165 0 0 0 4.077 3.234 4.19 4.19 0 0 0 4.184-4.184c0-.743-.233-1.431-.528-2.05M17.901 2.571h-.046v4.513h-3.948V2.503h-2.38v.068h-.031v11.205h2.374v-.041h.037V9.271h3.948v4.505h2.407v-.041h.052V2.503h-2.413v.068m6.1 7.399c0-1.09.96-1.805 1.903-1.805.505 0 1.004.2 1.355.563.265.3.434.702.434 1.192 0 1.141-.913 1.81-1.842 1.81-.454 0-.911-.167-1.264-.46a1.72 1.72 0 0 1-.586-1.3zm5.942-3.848h-2.25v.841c-.03-.04-.062-.08-.094-.116-.608-.74-1.659-.888-2.123-.888-1.94 0-3.88 1.516-3.88 3.961 0 1.402.64 2.496 1.55 3.177a3.91 3.91 0 0 0 2.384.825c.568 0 1.652-.26 2.163-.943v.756h.049v.04h2.244V6.182h-.043v-.06zm6.227-.163c-.876 0-1.748.484-2.168 1.22v-.998h-.033v-.06h-2.265v7.614h.037v.04h2.261V9.76c0-1.155.602-1.545 1.399-1.545.507 0 .92.223 1.14.667.097.216.151.48.151.795v4.059h.026v.04h2.26V9.239c0-.68-.106-1.25-.304-1.713-.426-1.049-1.31-1.566-2.504-1.566m9.896 3.945c0 1.092-.815 1.842-1.761 1.842a1.713 1.713 0 0 1-1.714-1.398 2.166 2.166 0 0 1-.035-.394c0-1.09.796-1.805 1.756-1.805.867 0 1.65.584 1.746 1.592.004.053.008.107.008.163zm.048-2.853c-.375-.701-1.287-1.092-2.233-1.092-1.956 0-3.684 1.549-3.684 3.994 0 .468.068.902.188 1.3.483 1.665 1.918 2.685 3.504 2.685.941 0 1.85-.405 2.225-1.101v.898h.003v.04h2.244v-.04h.003V1.98h-2.25v5.07zm8.052 1.114c.96 0 1.757.716 1.757 1.838 0 .268-.05.514-.137.732-.278.639-.895 1.027-1.602 1.027-.93 0-1.76-.668-1.76-1.81a1.739 1.739 0 0 1 1.743-1.788zm.442-2.206c-.946 0-1.859.407-2.234 1.108v-.945h-2.249v.059h-.008V17.5h2.244v-.032h.013V12.87c.382.685 1.282 1.067 2.215 1.067 1.342 0 2.576-.73 3.216-1.98.307-.578.487-1.27.487-2.054 0-2.396-1.728-3.945-3.684-3.945zm6.13-3.978c-.587 0-1.105.335-1.317.828a1.24 1.24 0 0 0-.133.558c0 .749.65 1.334 1.415 1.334.536 0 .998-.288 1.228-.717a1.3 1.3 0 0 0 .192-.682c0-.75-.62-1.32-1.385-1.32m-1.125 4.198h-.032v7.595h2.244v-.041h.037V6.122h-2.249v.059m7.694-.222c-1.373 0-2.655.613-3.419 1.663a3.808 3.808 0 0 0-.762 2.332c0 2.39 1.951 3.984 4.13 3.984.956 0 1.839-.295 2.528-.822a3.62 3.62 0 0 0 .832-.848l-1.842-1.305c-.012.02-.028.038-.041.057l-.013-.009a1.524 1.524 0 0 1-.254.303 1.798 1.798 0 0 1-1.159.415c-.962 0-1.89-.733-1.89-1.825 0-.457.163-.84.422-1.135.36-.376.884-.588 1.417-.588.586 0 1.155.277 1.464.765l1.838-1.318-.007-.009.065-.046c-.733-1.027-1.956-1.614-3.309-1.614m8.33 3.521L78.8 6.122h-2.886l-.051.059h-.02l-1.738 2.003V1.981h-2.25v.069h-.062v11.726h2.245v-.041h.067v-2.888l2.469 2.929h2.782l-.037-.041h.117L75.637 9.48" transform="translate(75 42)"></path>
    <path d="M81.457 9.252c.096-.47.35-.79.66-.997a1.92 1.92 0 0 1 .946-.253c.621 0 1.445.361 1.584 1.25h-3.19zm1.68-3.293c-.854 0-1.646.24-2.296.67-1.06.662-1.763 1.827-1.763 3.325 0 2.39 1.789 3.984 3.968 3.984.725 0 1.491-.13 2.158-.446.556-.247 1.05-.616 1.404-1.143l-1.646-1.125c-.019.025-.042.046-.062.07l-.032-.023a1.649 1.649 0 0 1-.513.432 2.43 2.43 0 0 1-1.056.238c-.783 0-1.722-.377-1.865-1.223H86.9l.003-.048h.095c.017-.196.033-.506.033-.701 0-2.396-1.728-4.01-3.896-4.01z" transform="translate(75 42)"></path>
  </g>
</svg>