<svg xmlns="http://www.w3.org/2000/svg" viewBox="0 0 95.84 63.84">
  <defs>
    <style>
      .cls-2{fill:#1d1d1b}
    </style>
  </defs>
  <g id="Layer_2" data-name="Layer 2">
    <g id="Layer_1-2" data-name="Layer 1">
      <circle cx="21.5" cy="21.5" r="21.5" fill="#64c2cb"/>
      <path class="cls-2" d="M32 36.12a.77.77 0 0 1-.28-.62.8.8 0 0 1 .28-.62.91.91 0 0 1 .65-.25.93.93 0 0 1 .65.25.83.83 0 0 1 .27.62.8.8 0 0 1-.27.62.93.93 0 0 1-.65.25.91.91 0 0 1-.65-.25zM42.56 32.27a4 4 0 0 1 1.15-2.94 3.89 3.89 0 0 1 2.85-1.12 4.06 4.06 0 0 1 1.72.37 2.69 2.69 0 0 1 1.23 1.07v-1.27h1.11v7.83h-1.11v-1.33A2.84 2.84 0 0 1 48.27 36a4 4 0 0 1-1.71.39 3.9 3.9 0 0 1-2.85-1.14 4 4 0 0 1-1.15-2.98zm1.11 0a3 3 0 0 0 .83 2.15 2.78 2.78 0 0 0 2.06.85 3 3 0 0 0 2.1-.8 2.88 2.88 0 0 0 .85-2.2 3.15 3.15 0 0 0-.26-1.27 2.76 2.76 0 0 0-.69-.93 3.09 3.09 0 0 0-.94-.55 3 3 0 0 0-1.06-.2 2.8 2.8 0 0 0-2.07.82 2.86 2.86 0 0 0-.82 2.13zM61.38 34.42a4.17 4.17 0 0 1-.55-2.15 4.11 4.11 0 0 1 .55-2.14 3.72 3.72 0 0 1 1.49-1.43 4.24 4.24 0 0 1 2-.49 4 4 0 0 1 2.82 1.05l-.79.79a3 3 0 0 0-2-.74 3 3 0 0 0-2.12.82 2.81 2.81 0 0 0-.86 2.14 2.87 2.87 0 0 0 .87 2.16 3.08 3.08 0 0 0 4.14.08l.81.79a4 4 0 0 1-2.84 1.07 4.17 4.17 0 0 1-2-.5 3.71 3.71 0 0 1-1.52-1.45zM79 32.27a4 4 0 0 1 1.15-2.94A3.89 3.89 0 0 1 83 28.21a4.06 4.06 0 0 1 1.72.37A2.69 2.69 0 0 1 86 29.65v-1.27h1.11v7.83H86v-1.33A2.84 2.84 0 0 1 84.73 36a4 4 0 0 1-1.71.39 3.9 3.9 0 0 1-2.85-1.14A4 4 0 0 1 79 32.27zm1.11 0a3 3 0 0 0 .89 2.15 2.78 2.78 0 0 0 2.06.85 3 3 0 0 0 2.1-.8 2.88 2.88 0 0 0 .85-2.2 3.15 3.15 0 0 0-.3-1.27 2.76 2.76 0 0 0-.69-.93 3.09 3.09 0 0 0-.94-.55 3 3 0 0 0-1.06-.2 2.8 2.8 0 0 0-2.07.82 2.86 2.86 0 0 0-.82 2.13zM24.29 51.27a4 4 0 0 1 1.14-2.94 3.89 3.89 0 0 1 2.85-1.12 4 4 0 0 1 1.72.37 2.64 2.64 0 0 1 1.23 1.07v-5.52h1.11v12.08h-1.11v-1.33A2.84 2.84 0 0 1 30 55a4 4 0 0 1-4.55-.75 4 4 0 0 1-1.16-2.98zm1.1 0a3 3 0 0 0 .83 2.15 2.78 2.78 0 0 0 2.06.85 2.94 2.94 0 0 0 2.1-.8 2.88 2.88 0 0 0 .85-2.2A3.15 3.15 0 0 0 31 50a2.76 2.76 0 0 0-.69-.93 3 3 0 0 0-.94-.55 3 3 0 0 0-1.06-.2 2.8 2.8 0 0 0-2.07.82 2.89 2.89 0 0 0-.85 2.13zM42.55 50.26a4 4 0 0 1 1.13-2.94 3.88 3.88 0 0 1 2.83-1.11 3.71 3.71 0 0 1 2.77 1.1 4 4 0 0 1 1.07 2.95v.52h-6.7a2.83 2.83 0 0 0 .94 1.81 2.77 2.77 0 0 0 1.88.68 2.9 2.9 0 0 0 1.44-.36 2.62 2.62 0 0 0 1-1l.59.13.53.12a3.6 3.6 0 0 1-1.43 1.63 4 4 0 0 1-2.14.58 4.1 4.1 0 0 1-2-.5 3.62 3.62 0 0 1-1.4-1.45 4.48 4.48 0 0 1-.51-2.16zm1.1-.53h5.52a2.89 2.89 0 0 0-.89-1.73 2.64 2.64 0 0 0-1.81-.65 2.75 2.75 0 0 0-2.82 2.42zM58.43 54.21v-7.83h1.1v1.28a2.09 2.09 0 0 1 .73-.82 3.51 3.51 0 0 1 1-.49 3 3 0 0 1 .89-.14 3 3 0 0 1 1.67.44 2.67 2.67 0 0 1 1 1.27 3.1 3.1 0 0 1 .63-.89 2.38 2.38 0 0 1 .81-.52 3.49 3.49 0 0 1 1.47-.3 2.78 2.78 0 0 1 2.22.91 3.7 3.7 0 0 1 .78 2.53v4.56h-1.1v-4.56a2.71 2.71 0 0 0-.5-1.72 1.72 1.72 0 0 0-1.4-.62 2.94 2.94 0 0 0-.94.15 3 3 0 0 0-.83.44 2.08 2.08 0 0 0-.61.82 3 3 0 0 0-.23 1.21v4.28H64v-4.56a2.71 2.71 0 0 0-.5-1.72 1.72 1.72 0 0 0-1.4-.62 2.94 2.94 0 0 0-.94.15 3 3 0 0 0-.83.44 2.08 2.08 0 0 0-.61.82 3 3 0 0 0-.23 1.21v4.28zM80.29 47.38h1.18l2.65 6.37 2.67-6.37H88L83.11 59H82l1.56-3.81z"/>
      <path fill="none" stroke="#1d1d1b" stroke-miterlimit="10" stroke-width=".68" d="M18.5 18.5h77v45h-77z"/>
    </g>
  </g>
</svg>
